# Blender v3.2.1 OBJ File: 'charging station.blend'
# www.blender.org
mtllib charging_station.mtl
o charging_station
v 0.500000 0.700000 0.300000
v 0.500000 0.700000 0.700000
v 0.100000 0.540000 0.300000
v 0.100000 0.540000 0.700000
v 1.000000 0.900000 0.100000
v 1.000000 0.900000 0.900000
v 0.000000 0.500000 0.100000
v 0.000000 0.500000 0.900000
v 0.658400 0.900000 0.450000
v 0.745000 0.900000 0.400000
v 0.658400 0.900000 0.550000
v 0.745000 0.900000 0.600000
v 0.831600 0.900000 0.550000
v 0.831600 0.900000 0.450000
v 0.500000 0.000000 0.300000
v 0.500000 -0.000000 0.700000
v 0.100000 0.000000 0.300000
v 0.100000 -0.000000 0.700000
v 1.000000 1.000000 0.100000
v 1.000000 1.000000 0.900000
v 0.000000 1.000000 0.100000
v 0.000000 1.000000 0.900000
v 0.658400 0.000000 0.450000
v 0.745000 0.000000 0.400000
v 0.658400 0.000000 0.550000
v 0.745000 0.000000 0.600000
v 0.831600 0.000000 0.550000
v 0.831600 0.000000 0.450000
vt 1.000000 0.000000
vt 0.843800 0.000000
vt 0.843800 0.284340
vt 1.000000 0.284340
vt 0.687500 0.078100
vt 0.796900 0.031200
vt 0.796900 0.228110
vt 0.687500 0.228786
vt 0.328100 0.176314
vt 0.328100 0.015600
vt 0.234400 0.015600
vt 0.234400 0.176314
vt 0.796900 0.228110
vt 0.796900 0.031200
vt 0.687500 0.078100
vt 0.687500 0.228786
vt 0.218800 0.531200
vt 0.078100 0.531200
vt 0.000000 0.765600
vt 0.296900 0.765600
vt 0.078100 0.328100
vt 0.000000 0.296900
vt 0.218800 0.328100
vt 0.296900 0.296900
vt 0.437500 0.656200
vt 0.640600 0.656200
vt 0.640600 0.628875
vt 0.437500 0.628875
vt 0.296900 0.875000
vt 0.000000 0.984400
vt 0.000000 0.857400
vt 0.296900 0.851550
vt 0.000000 0.250000
vt 0.171900 0.250000
vt 0.171900 0.113250
vt 0.000000 0.113250
vt 0.000000 0.857400
vt 0.000000 0.984400
vt 0.296900 0.875000
vt 0.296900 0.851550
vt 0.703100 0.728120
vt 0.703100 0.343700
vt 0.640600 0.343700
vt 0.640600 0.728120
vt 0.703100 0.728120
vt 0.703100 0.343700
vt 0.640600 0.343700
vt 0.640600 0.728120
vt 0.703100 0.728120
vt 0.703100 0.343700
vt 0.640600 0.343700
vt 0.640600 0.728120
vt 0.703100 0.728120
vt 0.703100 0.343700
vt 0.640600 0.343700
vt 0.640600 0.728120
vt 0.703100 0.728120
vt 0.703100 0.343700
vt 0.640600 0.343700
vt 0.640600 0.728120
vt 0.703100 0.728120
vt 0.703100 0.343700
vt 0.640600 0.343700
vt 0.640600 0.728120
vn 1.0000 0.0000 0.0000
vn 0.0000 0.0000 -1.0000
vn -1.0000 -0.0000 0.0000
vn 0.0000 0.0000 1.0000
vn 0.3714 -0.9285 0.0000
vn -0.5000 0.0000 -0.8660
vn -0.5000 0.0000 0.8660
vn 0.5000 0.0000 0.8660
vn 0.5000 0.0000 -0.8660
usemtl charging_station_main
s off
f 1/1/1 2/2/1 16/3/1 15/4/1
f 3/5/2 1/6/2 15/7/2 17/8/2
f 18/9/3 4/10/3 3/11/3 17/12/3
f 16/13/4 2/14/4 4/15/4 18/16/4
f 2/17/5 1/18/5 5/19/5 6/20/5
f 1/18/5 3/21/5 7/22/5 5/19/5
f 3/21/5 4/23/5 8/24/5 7/22/5
f 8/24/5 4/23/5 2/17/5 6/20/5
f 6/25/1 5/26/1 19/27/1 20/28/1
f 5/29/2 7/30/2 21/31/2 19/32/2
f 7/33/3 8/34/3 22/35/3 21/36/3
f 22/37/4 8/38/4 6/39/4 20/40/4
f 23/41/6 9/42/6 10/43/6 24/44/6
f 25/45/3 11/46/3 9/47/3 23/48/3
f 26/49/7 12/50/7 11/51/7 25/52/7
f 27/53/8 13/54/8 12/55/8 26/56/8
f 28/57/1 14/58/1 13/59/1 27/60/1
f 24/61/9 10/62/9 14/63/9 28/64/9
